<svg xmlns="http://www.w3.org/2000/svg" aria-hidden="true" style="position:absolute;width:0;height:0;overflow:hidden">
<defs>
<symbol id="icon-add" viewBox="0 0 32 32">
<path stroke-linejoin="round" stroke-linecap="round" stroke-miterlimit="4" stroke-width="2" d="M8 16h16M16 24v-16"></path>
</symbol>
<symbol id="icon-arrow-3" viewBox="0 0 32 32">
<path stroke-linejoin="round" stroke-linecap="round" stroke-miterlimit="4" stroke-width="2" d="M13.933 8.96l-4.96-4.96-4.96 4.96M8.973 28v-24M18.067 23.040l4.96 4.96 4.96-4.96M23.027 4v24"></path>
</symbol>
<symbol id="icon-arrow-right" viewBox="0 0 32 32">
<path stroke-linejoin="round" stroke-linecap="round" stroke-miterlimit="10" stroke-width="2" d="M19.24 7.907l8.093 8.093-8.093 8.093M4.667 16h22.44"></path>
</symbol>
<symbol id="icon-arrow-right-1" viewBox="0 0 32 32">
<path stroke-linejoin="round" stroke-linecap="round" stroke-miterlimit="10" stroke-width="2" d="M8 16v-3.56c0-4.413 3.133-6.227 6.96-4.013l6.16 3.573c3.827 2.213 3.827 5.827 0 8.040l-6.16 3.573c-3.827 2.173-6.96 0.373-6.96-4.053v-3.56z"></path>
</symbol>
<symbol id="icon-bubble" viewBox="0 0 32 32">
<path stroke-linejoin="miter" stroke-linecap="butt" stroke-miterlimit="10" stroke-width="2" d="M20.787 16.347c3.778 0 6.84-3.062 6.84-6.84s-3.062-6.84-6.84-6.84v0c-3.778 0-6.84 3.062-6.84 6.84s3.062 6.84 6.84 6.84v0zM8.48 25.92c2.268 0 4.107-1.839 4.107-4.107s-1.839-4.107-4.107-4.107v0c-2.268 0-4.107 1.839-4.107 4.107s1.839 4.107 4.107 4.107v0zM22.16 29.333c1.885 0 3.413-1.528 3.413-3.413s-1.528-3.413-3.413-3.413v0c-1.885 0-3.413 1.528-3.413 3.413s1.528 3.413 3.413 3.413v0z"></path>
</symbol>
<symbol id="icon-close-circle" viewBox="0 0 32 32">
<path stroke-linejoin="round" stroke-linecap="round" stroke-miterlimit="4" stroke-width="2" d="M16 29.333c7.333 0 13.333-6 13.333-13.333s-6-13.333-13.333-13.333-13.333 6-13.333 13.333 6 13.333 13.333 13.333zM12.227 19.773l7.547-7.547M19.773 19.773l-7.547-7.547"></path>
</symbol>
<symbol id="icon-direct-inbox" viewBox="0 0 32 32">
<path stroke-linejoin="round" stroke-linecap="round" stroke-miterlimit="4" stroke-width="2" d="M16 2.667v9.333l2.667-2.667M16 12l-2.667-2.667M2.64 17.333h5.88c0.507 0 0.96 0.28 1.187 0.733l1.56 3.12c0.446 0.884 1.347 1.479 2.387 1.48h4.707c1.040-0.001 1.94-0.596 2.38-1.465l0.007-0.015 1.56-3.12c0.224-0.437 0.671-0.732 1.186-0.733h5.814"></path>
<path stroke-linejoin="round" stroke-linecap="round" stroke-miterlimit="4" stroke-width="2" d="M9.333 5.507c-4.72 0.693-6.667 3.467-6.667 9.16v5.333c0 6.667 2.667 9.333 9.333 9.333h8c6.667 0 9.333-2.667 9.333-9.333v-5.333c0-5.693-1.947-8.467-6.667-9.16"></path>
</symbol>
<symbol id="icon-edit-2" viewBox="0 0 32 32">
<path stroke-linejoin="round" stroke-linecap="round" stroke-miterlimit="10" stroke-width="2" d="M17.68 4.8l-10.947 11.587c-0.413 0.44-0.813 1.307-0.893 1.907l-0.493 4.32c-0.173 1.56 0.947 2.627 2.493 2.36l4.293-0.733c0.6-0.107 1.44-0.547 1.853-1l10.947-11.587c1.893-2 2.747-4.28-0.2-7.067-2.933-2.76-5.16-1.787-7.053 0.213z"></path>
<path stroke-linejoin="round" stroke-linecap="round" stroke-miterlimit="10" stroke-width="2" d="M15.853 6.733c0.589 3.665 3.548 6.488 7.232 6.864l0.035 0.003M4 29.333h24"></path>
</symbol>
<symbol id="icon-eye" viewBox="0 0 32 32">
<path stroke-linejoin="round" stroke-linecap="round" stroke-miterlimit="4" stroke-width="2.6" d="M1.334 16s5.332-10.666 14.666-10.666c9.332 0 14.666 10.666 14.666 10.666s-5.334 10.666-14.666 10.666c-9.334 0-14.666-10.666-14.666-10.666z"></path>
<path stroke-linejoin="round" stroke-linecap="round" stroke-miterlimit="4" stroke-width="2.6" d="M16 20c2.209 0 4-1.791 4-4s-1.791-4-4-4v0c-2.209 0-4 1.791-4 4s1.791 4 4 4v0z"></path>
</symbol>
<symbol id="icon-eye-off" viewBox="0 0 32 32">
<path stroke-linejoin="round" stroke-linecap="round" stroke-miterlimit="4" stroke-width="2.6" d="M23.92 23.92c-2.175 1.671-4.923 2.696-7.908 2.746l-0.012 0c-9.334 0-14.666-10.666-14.666-10.666 1.713-3.152 3.977-5.791 6.688-7.877l0.058-0.043M13.2 5.654c0.833-0.203 1.788-0.32 2.771-0.32 0.010 0 0.020 0 0.030 0h-0.002c9.334 0 14.666 10.666 14.666 10.666-0.808 1.514-1.774 2.94-2.88 4.254M18.826 18.826c-0.733 0.795-1.78 1.291-2.943 1.291-2.209 0-4-1.791-4-4 0-1.163 0.496-2.21 1.288-2.941l0.003-0.002M1.334 1.334l29.332 29.332"></path>
</symbol>
<symbol id="icon-logout" viewBox="0 0 32 32">
<path stroke-linejoin="round" stroke-linecap="round" stroke-miterlimit="4" stroke-width="2" d="M11.867 10.080c0.413-4.8 2.88-6.76 8.28-6.76h0.173c5.96 0 8.347 2.387 8.347 8.347v8.693c0 5.96-2.387 8.347-8.347 8.347h-0.173c-5.36 0-7.827-1.933-8.267-6.653M20 16h-15.173M7.8 11.533l-4.467 4.467 4.467 4.467"></path>
</symbol>
<symbol id="icon-menu" viewBox="0 0 32 32">
<path stroke-linejoin="round" stroke-linecap="round" stroke-miterlimit="10" stroke-width="2" d="M23.387 11.080c1.811 0 3.28-1.469 3.28-3.28s-1.468-3.28-3.28-3.28v0c-1.811 0-3.28 1.468-3.28 3.28s1.468 3.28 3.28 3.28v0zM8.613 11.080c1.812 0 3.28-1.469 3.28-3.28s-1.469-3.28-3.28-3.28v0c-1.812 0-3.28 1.468-3.28 3.28s1.468 3.28 3.28 3.28v0zM23.387 27.48c1.811 0 3.28-1.468 3.28-3.28s-1.468-3.28-3.28-3.28v0c-1.811 0-3.28 1.468-3.28 3.28s1.468 3.28 3.28 3.28v0zM8.613 27.48c1.812 0 3.28-1.468 3.28-3.28s-1.469-3.28-3.28-3.28v0c-1.812 0-3.28 1.468-3.28 3.28s1.468 3.28 3.28 3.28v0z"></path>
</symbol>
<symbol id="icon-milk" viewBox="0 0 32 32">
<path stroke-linejoin="round" stroke-linecap="round" stroke-miterlimit="4" stroke-width="2" d="M24 20v5.333c0 2.2-1.8 4-4 4h-8c-2.2 0-4-1.8-4-4v-6.693l5.187 0.027c0.973 0 1.933 0.227 2.813 0.667s1.84 0.667 2.827 0.667h5.173z"></path>
<path stroke-linejoin="round" stroke-linecap="round" stroke-miterlimit="4" stroke-width="2" d="M24 14.44v5.56h-5.173c-0.987 0-1.947-0.227-2.827-0.667-0.819-0.42-1.788-0.666-2.813-0.667h-0l-5.187-0.027v-4.2c0-0.613 0.347-1.453 0.787-1.893l2.827-2.827c0.24-0.24 0.387-0.587 0.387-0.933v-2.12h8v2.12c0 0.347 0.147 0.693 0.387 0.933l2.827 2.827c0.44 0.44 0.787 1.28 0.787 1.893zM24 21.333v-1.333M8 19.973v-1.333M19.333 6.667h-6.667c-1.107 0-2-0.907-2-2s0.893-2 2-2h6.667c1.107 0 2 0.907 2 2s-0.893 2-2 2z"></path>
</symbol>
<symbol id="icon-profile-circle" viewBox="0 0 32 32">
<path stroke-linejoin="round" stroke-linecap="round" stroke-miterlimit="4" stroke-width="2" d="M16.16 17.040c-0.048-0.006-0.104-0.010-0.16-0.010s-0.112 0.004-0.166 0.011l0.006-0.001c-2.344-0.081-4.213-2-4.213-4.356 0-0.001 0-0.003 0-0.004v0c0-2.413 1.947-4.373 4.373-4.373 0.002 0 0.005 0 0.008 0 2.412 0 4.368 1.956 4.368 4.368 0 2.359-1.87 4.281-4.208 4.365l-0.008 0zM24.987 25.84c-2.35 2.166-5.502 3.493-8.963 3.493-0.008 0-0.017 0-0.025-0h0.001c-3.467 0-6.613-1.32-8.987-3.493 0.133-1.253 0.933-2.48 2.36-3.44 3.653-2.427 9.627-2.427 13.253 0 1.427 0.96 2.227 2.187 2.36 3.44z"></path>
<path stroke-linejoin="round" stroke-linecap="round" stroke-miterlimit="4" stroke-width="2" d="M16 29.333c7.364 0 13.333-5.969 13.333-13.333s-5.969-13.333-13.333-13.333-13.333 5.969-13.333 13.333 5.969 13.333 13.333 13.333z"></path>
</symbol>
<symbol id="icon-setting-2" viewBox="0 0 32 32">
<path stroke-linejoin="round" stroke-linecap="round" stroke-miterlimit="10" stroke-width="2" d="M16 20c2.209 0 4-1.791 4-4s-1.791-4-4-4v0c-2.209 0-4 1.791-4 4s1.791 4 4 4v0z"></path>
<path stroke-linejoin="round" stroke-linecap="round" stroke-miterlimit="10" stroke-width="2" d="M2.667 17.173v-2.347c0-1.387 1.133-2.533 2.533-2.533 2.413 0 3.4-1.707 2.187-3.8-0.693-1.2-0.28-2.76 0.933-3.453l2.307-1.32c1.053-0.627 2.413-0.253 3.040 0.8l0.147 0.253c1.2 2.093 3.173 2.093 4.387 0l0.147-0.253c0.627-1.053 1.987-1.427 3.040-0.8l2.307 1.32c1.213 0.693 1.627 2.253 0.933 3.453-1.213 2.093-0.227 3.8 2.187 3.8 1.387 0 2.533 1.133 2.533 2.533v2.347c0 1.387-1.133 2.533-2.533 2.533-2.413 0-3.4 1.707-2.187 3.8 0.693 1.213 0.28 2.76-0.933 3.453l-2.307 1.32c-1.053 0.627-2.413 0.253-3.040-0.8l-0.147-0.253c-1.2-2.093-3.173-2.093-4.387 0l-0.147 0.253c-0.627 1.053-1.987 1.427-3.040 0.8l-2.307-1.32c-0.764-0.446-1.269-1.261-1.269-2.194 0-0.463 0.124-0.898 0.342-1.271l-0.006 0.012c1.213-2.093 0.227-3.8-2.187-3.8-1.4 0-2.533-1.147-2.533-2.533z"></path>
</symbol>
</defs>
</svg>
